<svg width="100" height="101" viewBox="0 0 100 101" fill="none" xmlns="http://www.w3.org/2000/svg">
<path d="M20.8337 58.3418C19.7286 58.3418 18.6688 58.7808 17.8874 59.5622C17.106 60.3436 16.667 61.4034 16.667 62.5085V79.1751C16.667 80.2802 17.106 81.34 17.8874 82.1214C18.6688 82.9028 19.7286 83.3418 20.8337 83.3418C21.9387 83.3418 22.9985 82.9028 23.7799 82.1214C24.5613 81.34 25.0003 80.2802 25.0003 79.1751V77.7918H27.7753C30.3546 77.7918 32.8281 76.7672 34.6519 74.9434C36.4757 73.1196 37.5003 70.646 37.5003 68.0668C37.5003 65.4876 36.4757 63.014 34.6519 61.1902C32.8281 59.3664 30.3546 58.3418 27.7753 58.3418H20.8337ZM27.7753 69.4585H25.0003V66.6751H27.7753C28.1444 66.6751 28.4984 66.8217 28.7594 67.0827C29.0204 67.3437 29.167 67.6977 29.167 68.0668C29.167 68.4359 29.0204 68.7899 28.7594 69.0509C28.4984 69.3118 28.1444 69.4585 27.7753 69.4585Z" fill="#015AB7"/>
<path d="M66.667 62.5001C66.6692 61.3965 67.1092 60.3388 67.8903 59.5592C68.6715 58.7796 69.73 58.3418 70.8337 58.3418H79.1587C80.2637 58.3418 81.3235 58.7808 82.1049 59.5622C82.8863 60.3436 83.3253 61.4034 83.3253 62.5085C83.3253 63.6135 82.8863 64.6733 82.1049 65.4547C81.3235 66.2361 80.2637 66.6751 79.1587 66.6751H74.992V69.4668H79.1587C80.2637 69.4668 81.3235 69.9058 82.1049 70.6872C82.8863 71.4686 83.3253 72.5284 83.3253 73.6335C83.3253 74.7385 82.8863 75.7983 82.1049 76.5797C81.3235 77.3611 80.2637 77.8001 79.1587 77.8001H75.0003V79.1668C75.0014 79.714 74.8947 80.256 74.6863 80.7619C74.478 81.2679 74.172 81.7278 73.7858 82.1155C73.006 82.8985 71.9471 83.3396 70.842 83.3418C69.7369 83.344 68.6762 82.9071 67.8933 82.1273C67.1103 81.3475 66.6692 80.2885 66.667 79.1835V73.6251V62.5001Z" fill="#015AB7"/>
<path d="M45.8171 58.3418C44.712 58.3418 43.6522 58.7808 42.8708 59.5622C42.0894 60.3436 41.6504 61.4034 41.6504 62.5085V79.1751C41.6504 80.2802 42.0894 81.34 42.8708 82.1214C43.6522 82.9028 44.712 83.3418 45.8171 83.3418H50.0004C53.3156 83.3418 56.495 82.0248 58.8392 79.6806C61.1834 77.3364 62.5004 74.157 62.5004 70.8418C62.5004 67.5266 61.1834 64.3472 58.8392 62.003C56.495 59.6588 53.3156 58.3418 50.0004 58.3418H45.8171ZM49.9837 75.0085V66.6751H50.0004C51.1055 66.6751 52.1653 67.1141 52.9467 67.8955C53.7281 68.6769 54.1671 69.7367 54.1671 70.8418C54.1671 71.9469 53.7281 73.0067 52.9467 73.7881C52.1653 74.5695 51.1055 75.0085 50.0004 75.0085H49.9837Z" fill="#015AB7"/>
<path d="M58.3333 0H20.8333C17.5181 0 14.3387 1.31696 11.9945 3.66116C9.6503 6.00537 8.33334 9.18479 8.33334 12.5V42.35C5.89385 43.2125 3.78212 44.8108 2.2895 46.9243C0.79688 49.0379 -0.00307206 51.5625 8.86601e-06 54.15V87.5083C8.86601e-06 90.8235 1.31697 94.003 3.66117 96.3472C6.00538 98.6914 9.1848 100.008 12.5 100.008H87.5C90.8152 100.008 93.9946 98.6914 96.3388 96.3472C98.683 94.003 100 90.8235 100 87.5083V54.1417C100.001 51.5556 99.2006 49.0328 97.7081 46.9209C96.2156 44.809 94.1048 43.212 91.6667 42.35V33.3167H70.8333C67.5181 33.3167 64.3387 31.9997 61.9945 29.6555C59.6503 27.3113 58.3333 24.1319 58.3333 20.8167V0ZM12.5 49.975H87.5C88.6051 49.975 89.6649 50.414 90.4463 51.1954C91.2277 51.9768 91.6667 53.0366 91.6667 54.1417V87.5C91.6667 88.6051 91.2277 89.6649 90.4463 90.4463C89.6649 91.2277 88.6051 91.6667 87.5 91.6667H12.5C11.3949 91.6667 10.3351 91.2277 9.55373 90.4463C8.77233 89.6649 8.33334 88.6051 8.33334 87.5V54.1417C8.33334 53.0366 8.77233 51.9768 9.55373 51.1954C10.3351 50.414 11.3949 49.975 12.5 49.975Z" fill="#015AB7"/>
<path d="M89.217 24.983H70.8337C69.7286 24.983 68.6688 24.544 67.8874 23.7626C67.106 22.9812 66.667 21.9214 66.667 20.8163V2.45801L89.217 24.983Z" fill="#015AB7"/>
</svg>
